<?xml version="1.0" encoding="UTF-8"?>
<svg id="Layer_1" data-name="Layer 1" xmlns="http://www.w3.org/2000/svg" viewBox="0 0 1759.43 265.02">
  <defs>
    <style>
      .cls-1 {
        fill: #fff;
      }

      .cls-2 {
        fill: #4a6bf5;
      }
    </style>
  </defs>
  <path class="cls-2" d="M291.43,79.64h-14.27c-10.89,0-19.72-8.83-19.72-19.72h0c0-10.89,8.83-19.72,19.72-19.72h114.14c10.89,0,19.72,8.83,19.72,19.72h0c0,10.89-8.83,19.72-19.72,19.72h-14.59c-10.88,0-19.7,8.81-19.72,19.68l-.2,105.82c-.02,10.88-8.84,19.68-19.72,19.68h-6.19c-10.89,0-19.72-8.83-19.72-19.72V99.36c0-10.89-8.83-19.72-19.72-19.72Z"/>
  <path class="cls-1" d="M546.75,145.08c-2.44-22.64-12.75-40.36-28.05-51.75-.22-.18-.46-.34-.7-.49-12.22-8.89-27.56-13.79-44.55-14.04-.62-.02-1.24-.02-1.87-.02-.48,0-.96,0-1.42,.02-1.21,.03-2.44,.08-3.67,.14-.61,.03-1.23,.08-1.83,.13-.56,.05-1.1,.1-1.64,.14-.73,.06-1.47,.14-2.2,.24-20.68,2.59-38.39,12.66-49.97,27.95-2.54,3.35-1.33,8.21,2.42,10.12l21.61,10.98c2.71,1.38,6.06,.84,8.08-1.43,4.6-5.17,11.06-8.62,18.43-10.16,.16-.03,.31-.07,.46-.12,3.28-1.07,6.73-1.63,10.22-1.63,12.54,0,24.43,6.7,29.78,17.43,.02,.04,.04,.07,.07,.11,2.66,4.49-.74,10.16-5.96,10.16h-92.63c-3.74,0-6.76,3.01-6.83,6.74-.07,3.52,.07,7.12,.4,10.31,2.44,22.64,12.75,40.36,28.05,51.75,.24,.18,.46,.34,.7,.49,12.81,8.79,28.47,13.69,44.55,14.04,.46,.02,.93,.02,1.39,.02,.64,0,1.26,0,1.9-.02,1.21-.03,2.44-.08,3.67-.14,.61-.03,1.23-.08,1.84-.13,.56-.05,1.1-.1,1.64-.14,.81-.08,1.61-.16,2.41-.27,.65-.08,1.29-.16,1.93-.26,19.77-3.02,36.66-12.91,47.84-27.68,2.54-3.35,1.32-8.2-2.43-10.1l-21.61-10.98c-2.71-1.38-6.06-.84-8.08,1.43-4.65,5.23-11.2,8.69-18.66,10.21-3.18,.64-6.53,.94-9.97,.86-12.3-.21-24.13-6.26-30.27-16.61-.02-.03-.04-.06-.05-.09-2.65-4.48,.75-10.15,5.96-10.15h92.63c3.74,0,6.76-3.01,6.83-6.74,.07-3.52-.07-7.12-.4-10.31Z"/>
  <path class="cls-1" d="M672.06,174.34l-.81-.42c-1.53,2.52-3.43,4.74-5.63,6.64-.03,.03-.06,.06-.1,.08-4.34,3.73-9.81,6.27-15.91,7.52-3.18,.64-6.53,.94-9.97,.86-12.3-.21-24.13-6.26-30.27-16.61-1.82-3.05-3.14-6.48-3.85-10.24,0,0-1.84-5.17-2.16-12.09-.19-4.03-3.52-7.2-7.55-7.2h-31.35c-.06,.67-.13,1.36-.19,2.04-.05,.7-.1,1.4-.13,2.12-.06,1.44-.1,2.9-.1,4.37v.38c0,.22,0,.43,.02,.65,.02,2.59,.14,5.15,.4,7.48,2.44,22.64,12.75,40.36,28.05,51.75,.24,.18,.46,.34,.7,.49,12.81,8.79,28.47,13.69,44.55,14.04,.46,.02,.93,.02,1.39,.02,.64,0,1.26,0,1.9-.02,1.21-.03,2.44-.08,3.67-.14,.61-.03,1.23-.08,1.84-.13,.56-.05,1.1-.1,1.64-.14,.81-.08,1.61-.16,2.41-.27,.65-.08,1.29-.16,1.93-.26,2.78-.41,5.47-.97,8.12-1.68,.05-.02,.11-.02,.16-.03,15.78-4.13,29.27-12.85,38.82-25,2.96-3.77,1.78-9.3-2.49-11.48l-25.09-12.75Zm14.22-80.98c-.22-.18-.46-.34-.7-.49-12.22-8.89-27.56-13.79-44.55-14.04-.62-.02-1.24-.02-1.87-.02-.48,0-.96,0-1.42,.02-1.21,.03-2.44,.08-3.67,.14-.61,.03-1.23,.08-1.83,.13-.56,.05-1.1,.1-1.64,.14-.73,.06-1.47,.14-2.2,.24-20.25,2.54-37.66,12.25-49.25,27.01-2.96,3.77-1.76,9.29,2.5,11.46l20.19,10.26c3.06,1.56,6.79,.91,9.14-1.6h0c.34-.37,.69-.73,1.05-1.07,.37-.38,.75-.72,1.13-1.04,2.55-2.25,5.51-4.04,8.74-5.39,.35-.16,.69-.3,1.05-.41,1.9-.75,3.89-1.32,5.96-1.77l.51-.14c1.13-.36,2.29-.67,3.45-.92,1.01-.21,2.03-.37,3.05-.48,.48-.06,.97-.11,1.45-.14,.16-.03,.32-.06,.48-.08,2.09-.4,4.24-.59,6.48-.59,14.82,0,27.13,8.95,32.44,21.54,0,0,0,0,0,0l25-8.98c4.26-1.53,6.3-6.48,4.22-10.5-4.88-9.41-11.6-17.23-19.72-23.28Z"/>
  <path class="cls-2" d="M1247.26,142.18c-2.44-22.64-12.75-40.36-28.05-51.75-.22-.18-.46-.34-.7-.49-12.22-8.89-27.56-13.79-44.55-14.04-.62-.02-1.24-.02-1.87-.02-.48,0-.96,0-1.42,.02-1.21,.03-2.44,.08-3.67,.14-.61,.03-1.23,.08-1.83,.13-.56,.05-1.1,.1-1.64,.14-.73,.06-1.47,.14-2.2,.24-20.68,2.59-38.39,12.66-49.97,27.95-2.54,3.35-1.33,8.21,2.42,10.12l21.61,10.98c2.71,1.38,6.06,.84,8.08-1.43,4.6-5.17,11.06-8.62,18.43-10.16,.16-.03,.31-.07,.46-.12,3.28-1.07,6.73-1.63,10.22-1.63,12.54,0,24.43,6.7,29.78,17.43,.02,.04,.04,.07,.07,.11,2.66,4.49-.74,10.16-5.96,10.16h-92.63c-3.74,0-6.76,3.01-6.83,6.74-.07,3.52,.07,7.12,.4,10.31,2.44,22.64,12.75,40.36,28.05,51.75,.24,.18,.46,.34,.7,.49,12.81,8.79,28.47,13.69,44.55,14.04,.46,.02,.93,.02,1.39,.02,.64,0,1.26,0,1.9-.02,1.21-.03,2.44-.08,3.67-.14,.61-.03,1.23-.08,1.84-.13,.56-.05,1.1-.1,1.64-.14,.81-.08,1.61-.16,2.41-.27,.65-.08,1.29-.16,1.93-.26,19.77-3.02,36.66-12.91,47.84-27.68,2.54-3.35,1.32-8.2-2.43-10.1l-21.61-10.98c-2.71-1.38-6.06-.84-8.08,1.43-4.65,5.23-11.2,8.69-18.66,10.21-3.18,.64-6.53,.94-9.97,.86-12.3-.21-24.13-6.26-30.27-16.61-.02-.03-.04-.06-.05-.09-2.65-4.48,.75-10.15,5.96-10.15h92.63c3.74,0,6.76-3.01,6.83-6.74,.07-3.52-.07-7.12-.4-10.31Z"/>
  <path class="cls-2" d="M744.24,40.19h.48c12.54,0,22.7,10.16,22.7,22.7h0c0,15.93,15.89,26.64,30.86,21.18,6.84-2.5,14.13-3.78,21.18-3.87,37.77-.56,66.86,27.13,66.86,74.41v47.52c0,12.54-10.16,22.7-22.7,22.7h-.48c-12.54,0-22.7-10.16-22.7-22.7v-47.8c0-23.22-15.38-37.21-35.53-36.93-19.86,.56-35.81,13.99-35.81,36.93v47.8c0,12.54-10.16,22.7-22.7,22.7h-2.16c-12.54,0-22.7-10.16-22.7-22.7V62.89c0-12.54,10.16-22.7,22.7-22.7Z"/>
  <path class="cls-1" d="M963.04,38.78h107.15c7.34,0,13.29,5.95,13.29,13.29v19.03c0,7.34-5.95,13.29-13.29,13.29h-61.27c-7.34,0-13.29,5.95-13.29,13.29h0c0,7.34,5.95,13.29,13.29,13.29h46.44c7.34,0,13.29,5.95,13.29,13.29v12.87c0,7.34-5.95,13.29-13.29,13.29h-46.44c-7.34,0-13.29,5.95-13.29,13.29v46.44c0,7.34-5.95,13.29-13.29,13.29h-19.3c-7.34,0-13.29-5.95-13.29-13.29V52.07c0-7.34,5.95-13.29,13.29-13.29Z"/>
  <path class="cls-2" d="M1282.6,173.62h1.35c6.71,0,12.7,3.75,16.16,9.5,3.89,6.46,11.09,9.88,19.41,10.08,9.79,.28,17.62-3.92,17.9-12.03,.28-8.11-5.32-12.87-19.58-14.83-36.65-4.2-61.83-12.87-62.38-42.52-.56-27.42,24.62-45.04,59.59-45.04,22.59,0,42.29,7.02,53.96,20.98,10.47,12.52,1.31,31.62-15.02,31.62h-1.59c-6.85,0-13.16-3.65-16.67-9.53-3.58-6-10.3-9.86-18.72-10.05-10.63-.28-17.07,5.6-17.07,13.43s5.59,12.87,21.54,15.67c40.84,7.27,59.87,13.15,59.59,43.08,0,29.09-26.86,43.08-62.1,42.24-19.81-.49-38.36-7.42-50.23-19.68-11.93-12.32-3.28-32.91,13.86-32.91Z"/>
  <path class="cls-1" d="M1412.4,166.9v-37.91c0-5.64-4.57-10.21-10.21-10.21h0c-5.64,0-10.21-4.57-10.21-10.21v-19.97c0-4.8,3.35-8.99,8.05-9.97,12.39-2.58,12.67-12.27,12.46-29.51-.07-5.69,4.52-10.35,10.21-10.35h25.15c5.61,0,10.17,4.53,10.21,10.14l.14,20.29c.04,5.61,4.6,10.14,10.21,10.14h14.62c5.64,0,10.21,4.57,10.21,10.21v19.02c0,5.64-4.57,10.21-10.21,10.21h-14.83c-5.64,0-10.21,4.57-10.21,10.21v32.03c0,17.47,12.15,25.37,28.88,22.55,5.5-.93,10.68,2.93,11.63,8.44l3.32,19.38c.89,5.2-2.32,10.24-7.42,11.6-38.06,10.16-82.01-7.35-82.01-56.08Z"/>
</svg>